<?xml version="1.0" encoding="utf-8"?>
<!-- Generator: Adobe Illustrator 16.0.4, SVG Export Plug-In . SVG Version: 6.00 Build 0)  -->
<!DOCTYPE svg PUBLIC "-//W3C//DTD SVG 1.1//EN" "http://www.w3.org/Graphics/SVG/1.1/DTD/svg11.dtd">
<svg version="1.1" xmlns="http://www.w3.org/2000/svg" xmlns:xlink="http://www.w3.org/1999/xlink" x="0px" y="0px" width="469px"
	 height="210px" viewBox="-45.6 -37.7 469 210" enable-background="new -45.6 -37.7 469 210" xml:space="preserve">
<g id="svg2" xmlns:inkscape="http://www.inkscape.org/namespaces/inkscape" xmlns:dc="http://purl.org/dc/elements/1.1/" xmlns:rdf="http://www.w3.org/1999/02/22-rdf-syntax-ns#" xmlns:sodipodi="http://sodipodi.sourceforge.net/DTD/sodipodi-0.dtd" xmlns:svg="http://www.w3.org/2000/svg" xmlns:cc="http://creativecommons.org/ns#" inkscape:version="0.48.5 r10040" sodipodi:docname="logo_black.svg">
	<path fill="#005490" d="M414.4,153.387c0,6.186-5.093,11.2-11.373,11.2H-27.227c-6.281,0-11.373-5.015-11.373-11.2v-173.6
		c0-6.186,5.092-11.2,11.373-11.2h430.254c6.28,0,11.373,5.014,11.373,11.2V153.387z"/>
	
		<sodipodi:namedview  id="base" inkscape:cx="226.26545" borderopacity="1.0" pagecolor="#ffffff" bordercolor="#666666" inkscape:zoom="1.979899" showgrid="false" inkscape:cy="51.538195" inkscape:pageshadow="2" inkscape:snap-global="true" inkscape:current-layer="layer1" inkscape:window-x="-8" inkscape:window-width="1920" inkscape:window-height="1027" inkscape:window-y="-8" inkscape:pageopacity="0" inkscape:window-maximized="1" inkscape:document-units="px">
		</sodipodi:namedview>
	<g id="layer1" transform="translate(0,-906.11214)" inkscape:label="Layer 1" inkscape:groupmode="layer">
		<g>
			<g id="path3044_7_" inkscape:connector-curvature="0">
				<path fill="#FFFFFF" d="M57.9,897.6C16.5,897.6-17.2,931.3-17.2,972.7c0,41.399,33.7,75.1,75.101,75.1c11.3,0,21.899-2.6,31.5-7
					v-17c-9.2,5.601-19.9,8.9-31.5,8.9c-26.101,0-48.2-16.5-56.5-39.7H7.8h8.4v-13.9L27,993.2L27.1,993.1v0.101H43.5V981.6H32.7
					l-7.1-9.3L42.4,950H27.8l-11.6,15.4V950H7.6H2.4c9-21.8,30.399-37.1,55.5-37.1c33.2,0,60,26.699,60,60
					c0,10.6-2.8,20.6-7.601,29.199H88.2v-40.3h12.1V950h-36v11.6H76.6v40.301l0,0v11.6h25.3h10.7H121c7.7-11.8,12.2-25.8,12.2-40.9
					C133,931.3,99.3,897.6,57.9,897.6z M48.2,950v43.1h11.6V950H48.2z M-1,961.5H4.6v19.9H-1.5c-0.399-2.801-0.6-5.7-0.6-8.601
					C-2.1,968.9-1.7,965.1-1,961.5z"/>
			</g>
		</g>
	</g>
	<g display="none">
		<g display="inline">
			<path fill="#FFFFFF" d="M271.4,30.2H268.3L260.1,19.3l-2.4,2.1V30.2h-2.6V7.7h2.6v11.1L268,7.7h3.101l-9,9.8L271.4,30.2z"/>
			<path fill="#FFFFFF" d="M288.6,30.2L285.8,23.1h-9L274,30.2h-2.6L280.3,7.6h2.2l8.8,22.601H288.6z M285,20.7l-2.6-7
				c-0.3-0.9-0.7-2-1-3.2c-0.2,1-0.5,2.1-1,3.2l-2.601,7H285z"/>
			<path fill="#FFFFFF" d="M301.301,30.2H298.7V10.1h-7.1V7.7h16.8V10h-7.1V30.2L301.301,30.2z"/>
			<path fill="#FFFFFF" d="M324.301,30.2h-12.5V7.7h12.5V10h-9.9v7.2h9.3v2.3h-9.3v8.3h9.9V30.2z"/>
			<path fill="#FFFFFF" d="M347.301,18.8c0,3.7-1,6.5-3,8.5s-4.9,2.9-8.7,2.9h-6.2V7.7h6.9c3.5,0,6.199,1,8.1,2.899
				C346.301,12.5,347.301,15.3,347.301,18.8z M344.501,18.9c0-2.899-0.7-5.1-2.2-6.6s-3.7-2.2-6.601-2.2h-3.8V28h3.2
				c3.1,0,5.5-0.8,7-2.3S344.501,21.9,344.501,18.9z"/>
			<path fill="#FFFFFF" d="M354.9,20.9V30.2h-2.6V7.7h6.2c2.8,0,4.8,0.5,6.1,1.6s2,2.6,2,4.8c0,3-1.5,5-4.5,6l6.1,10.101h-3.199
				l-5.4-9.301H354.9z M354.9,18.6h3.601c1.8,0,3.199-0.399,4.1-1.1s1.3-1.8,1.3-3.3s-0.399-2.601-1.3-3.2c-0.9-0.7-2.3-1-4.2-1
				h-3.399v8.6H354.9z"/>
			<path fill="#FFFFFF" d="M385.801,30.2l-2.8-7.101h-9L371.2,30.2h-2.6l8.9-22.601h2.199l8.801,22.601H385.801z M382.2,20.7l-2.6-7
				c-0.3-0.9-0.7-2-1-3.2c-0.2,1-0.5,2.1-1,3.2l-2.6,7H382.2z"/>
			<path fill="#FFFFFF" d="M155.2,61.7V39.2h2.6v22.5H155.2z"/>
			<path fill="#FFFFFF" d="M181.5,61.7h-3l-12.3-18.9h-0.1C166.3,45,166.3,47,166.3,48.9V61.7H163.9V39.2h3L179.1,58h0.1
				c0-0.3-0.1-1.2-0.1-2.7S179,52.7,179,52.1V39.2h2.4v22.5H181.5z"/>
			<path fill="#FFFFFF" d="M190.3,61.7h-2.6V39.2h12.5v2.3h-9.9v8.2h9.301V52H190.3V61.7z"/>
			<path fill="#FFFFFF" d="M223.4,50.4c0,3.601-0.9,6.4-2.7,8.5C218.9,61,216.4,62,213.1,62c-3.301,0-5.9-1-7.7-3
				s-2.7-4.9-2.7-8.601c0-3.699,0.9-6.5,2.7-8.5s4.399-3,7.7-3c3.199,0,5.699,1,7.6,3.101C222.5,44,223.4,46.8,223.4,50.4z
				 M205.5,50.4c0,3,0.601,5.4,1.9,6.9c1.3,1.6,3.2,2.4,5.6,2.4c2.5,0,4.4-0.801,5.601-2.4c1.3-1.6,1.899-3.9,1.899-6.9
				s-0.6-5.3-1.899-6.899C217.3,41.9,215.5,41.2,213,41.2S208.6,42,207.3,43.6C206.2,45.1,205.5,47.4,205.5,50.4z"/>
			<path fill="#FFFFFF" d="M231,52.3v9.3h-2.6V39.2h6.2c2.8,0,4.8,0.5,6.1,1.6s2,2.6,2,4.8c0,3-1.5,5-4.5,6l6.1,10.101h-3.1
				l-5.4-9.301H231V52.3z M231,50.1h3.601c1.8,0,3.199-0.399,4.1-1.1s1.3-1.8,1.3-3.3s-0.399-2.601-1.3-3.2c-0.9-0.7-2.3-1-4.2-1
				H231V50.1z"/>
			<path fill="#FFFFFF" d="M257.8,61.7l-7.6-19.9h-0.1c0.1,1.6,0.199,3.5,0.199,5.6V61.7H247.9V39.2h3.899l7.101,18.5h0.1l7.2-18.5
				h3.9v22.5H267.5V47.2c0-1.7,0.101-3.5,0.2-5.4h-0.1l-7.7,19.9H257.8z"/>
			<path fill="#FFFFFF" d="M290.4,61.7l-2.8-7.101h-9L275.8,61.7h-2.6l8.9-22.601h2.199L293.1,61.7H290.4z M286.8,52.2l-2.6-7
				c-0.3-0.9-0.7-2-1-3.2c-0.2,1-0.5,2.1-1,3.2l-2.6,7H286.8z"/>
			<path fill="#FFFFFF" d="M305.801,41.2c-2.5,0-4.4,0.8-5.8,2.5c-1.4,1.6-2.101,3.899-2.101,6.8c0,2.899,0.7,5.2,2.101,6.8
				c1.399,1.6,3.3,2.4,5.899,2.4c1.601,0,3.4-0.301,5.4-0.801V61.2c-1.601,0.6-3.5,0.899-5.8,0.899c-3.301,0-5.9-1-7.701-3
				c-1.8-2-2.699-4.899-2.699-8.6c0-2.3,0.399-4.3,1.3-6.101c0.899-1.699,2.1-3.1,3.8-4C301.801,39.5,303.801,39,306,39
				c2.4,0,4.4,0.399,6.2,1.3l-1.1,2.2C309.2,41.6,307.501,41.2,305.801,41.2z M300.2,32.4h1.801c1.199,0.801,2.3,1.7,3.399,2.9
				c1.3-1.3,2.5-2.3,3.4-2.9h1.8v0.4l-1,1c-1.5,1.5-2.4,2.7-2.9,3.6h-2.6c-0.2-0.399-0.601-1-1.101-1.6s-1.399-1.7-2.699-3.1V32.4
				H300.2z"/>
			<path fill="#FFFFFF" d="M333.6,61.7h-3l-12.3-18.9H318.2c0.2,2.2,0.2,4.2,0.2,6.1V61.7h-2.399V39.2h3l12.3,18.8h0.1
				c0-0.3-0.1-1.2-0.1-2.7s-0.101-2.6-0.101-3.2V39.2h2.4V61.7L333.6,61.7z"/>
			<path fill="#FFFFFF" d="M339.501,37c0.5-0.601,1-1.4,1.6-2.3c0.6-0.9,1-1.7,1.3-2.4h3.101v0.3c-0.5,0.7-1.101,1.5-2,2.5
				c-0.9,1-1.7,1.7-2.301,2.3h-1.699V37z M339.801,61.7V39.2h2.6v22.5H339.801z"/>
			<path fill="#FFFFFF" d="M358.2,41.2c-2.5,0-4.399,0.8-5.8,2.5c-1.399,1.6-2.1,3.899-2.1,6.8c0,2.899,0.7,5.2,2.1,6.8
				c1.4,1.6,3.3,2.4,5.9,2.4c1.6,0,3.399-0.301,5.399-0.801V61.2c-1.6,0.6-3.5,0.899-5.8,0.899c-3.3,0-5.899-1-7.7-3
				c-1.8-2-2.699-4.899-2.699-8.6c0-2.3,0.399-4.3,1.3-6.101c0.899-1.699,2.1-3.1,3.8-4C354.2,39.5,356.2,39,358.4,39
				c2.4,0,4.4,0.399,6.2,1.3l-1.101,2.2C361.6,41.6,359.9,41.2,358.2,41.2z"/>
			<path fill="#FFFFFF" d="M385.501,61.7H382.9V51.1h-11.899V61.7H368.4V39.2h2.601v9.6h11.8v-9.6h2.6v22.5H385.501z"/>
			<path fill="#FFFFFF" d="M191,93.2h-2.6V73H181.3v-2.3H198.1V73H191V93.2z"/>
			<path fill="#FFFFFF" d="M214,93.2h-12.5V70.7H214V73H204.1v7.2h9.3v2.3h-9.3v8.3H214V93.2z"/>
			<path fill="#FFFFFF" d="M228.6,72.7c-2.5,0-4.4,0.8-5.801,2.5c-1.399,1.6-2.1,3.899-2.1,6.8c0,2.899,0.7,5.2,2.1,6.8
				c1.4,1.6,3.301,2.4,5.9,2.4c1.6,0,3.4-0.301,5.4-0.801V92.7c-1.601,0.6-3.5,0.899-5.801,0.899c-3.3,0-5.899-1-7.699-3
				c-1.801-2-2.7-4.899-2.7-8.6c0-2.3,0.399-4.3,1.3-6.101c0.9-1.699,2.1-3.1,3.8-4C224.6,71,226.6,70.5,228.8,70.5
				c2.4,0,4.4,0.399,6.2,1.3l-1.1,2.2C232,73.1,230.3,72.7,228.6,72.7z"/>
			<path fill="#FFFFFF" d="M255.9,93.2H253.3V82.6h-11.8V93.2h-2.6V70.7h2.6v9.6h11.8v-9.6h2.601V93.2z"/>
			<path fill="#FFFFFF" d="M279.6,93.2h-3L264.3,74.3h-0.1c0.2,2.2,0.2,4.2,0.2,6.1V93.2H262V70.7h3l12.2,18.8h0.101
				c0-0.3-0.101-1.2-0.101-2.7s-0.1-2.6-0.1-3.2V70.7h2.399v22.5H279.6z"/>
			<path fill="#FFFFFF" d="M305.301,81.9c0,3.601-0.9,6.4-2.7,8.5c-1.8,2.101-4.3,3.101-7.601,3.101c-3.3,0-5.899-1-7.7-3
				c-1.8-2-2.699-4.9-2.699-8.601c0-3.699,0.899-6.5,2.699-8.5c1.801-2,4.4-3,7.7-3c3.2,0,5.7,1,7.601,3.101
				C304.4,75.5,305.301,78.3,305.301,81.9z M287.4,81.9c0,3,0.6,5.4,1.899,6.9c1.301,1.6,3.2,2.4,5.601,2.4
				c2.5,0,4.4-0.801,5.601-2.4c1.199-1.6,1.899-3.9,1.899-6.9s-0.6-5.3-1.899-6.899c-1.301-1.601-3.101-2.3-5.601-2.3
				s-4.4,0.8-5.7,2.399C288.1,76.6,287.4,78.9,287.4,81.9z"/>
			<path fill="#FFFFFF" d="M310.301,93.2V70.7h2.6v20.1h9.9v2.4H310.301z"/>
			<path fill="#FFFFFF" d="M346.2,81.9c0,3.601-0.899,6.4-2.699,8.5C341.7,92.5,339.2,93.5,335.9,93.5s-5.899-1-7.7-3
				c-1.8-2-2.7-4.9-2.7-8.601c0-3.699,0.9-6.5,2.7-8.5s4.4-3,7.7-3c3.2,0,5.7,1,7.601,3.101C345.301,75.5,346.2,78.3,346.2,81.9z
				 M328.301,81.9c0,3,0.6,5.4,1.899,6.9c1.3,1.6,3.2,2.4,5.601,2.4c2.5,0,4.399-0.801,5.6-2.4s1.9-3.9,1.9-6.9S342.7,76.6,341.4,75
				c-1.3-1.601-3.1-2.3-5.6-2.3s-4.4,0.8-5.7,2.399C328.9,76.6,328.301,78.9,328.301,81.9z"/>
			<path fill="#FFFFFF" d="M361.1,81.4h7.6v10.9c-1.199,0.4-2.399,0.7-3.6,0.9c-1.2,0.199-2.7,0.3-4.3,0.3c-3.4,0-6-1-7.9-3
				c-1.899-2-2.8-4.9-2.8-8.5c0-2.3,0.5-4.4,1.4-6.101c0.899-1.8,2.3-3.1,4-4c1.8-0.899,3.8-1.399,6.199-1.399
				c2.4,0,4.601,0.399,6.7,1.3l-1,2.3c-2-0.899-4-1.3-5.899-1.3c-2.7,0-4.9,0.8-6.4,2.4c-1.5,1.6-2.3,3.899-2.3,6.8
				c0,3,0.7,5.3,2.2,6.899c1.5,1.601,3.699,2.4,6.5,2.4c1.6,0,3.1-0.2,4.6-0.5v-6.9h-5V81.4L361.1,81.4z"/>
			<path fill="#FFFFFF" d="M374.1,93.2V70.7h2.6v22.5H374.1z"/>
			<path fill="#FFFFFF" d="M382.501,68.5c0.5-0.601,1-1.4,1.6-2.3c0.6-0.9,1-1.7,1.3-2.4h3.101v0.3c-0.5,0.7-1.101,1.5-2,2.5
				c-0.9,1-1.7,1.7-2.301,2.3h-1.699V68.5z M382.9,93.2V70.7h2.601v22.5H382.9z"/>
		</g>
	</g>
	<g display="none">
		<g display="inline">
			<path fill="#FFFFFF" d="M170.9,111.1c0,2.3-0.7,4-2.2,5.2c-1.4,1.2-3.5,1.8-6.2,1.8H160v8.7H157.6v-22.2H163
				C168.3,104.6,170.9,106.8,170.9,111.1z M160.1,115.9h2.199c2.2,0,3.7-0.399,4.7-1.1s1.4-1.9,1.4-3.6c0-1.5-0.5-2.601-1.4-3.301
				c-0.899-0.699-2.3-1.1-4.2-1.1H160.1V115.9z"/>
			<path fill="#FFFFFF" d="M187,126.8h-11.7v-22.2H187v2.3h-9.3v7.2h8.7v2.3h-8.7v8.2h9.3V126.8z"/>
			<path fill="#FFFFFF" d="M194.1,126.8h-2.4v-22.2h11.7v2.3h-9.3V115h8.699v2.3H194.1V126.8z"/>
			<path fill="#FFFFFF" d="M223.4,106.6c-2.3,0-4.101,0.8-5.5,2.4c-1.3,1.6-2,3.899-2,6.7c0,2.899,0.6,5.199,1.899,6.699
				c1.301,1.601,3.101,2.4,5.5,2.4c1.5,0,3.101-0.3,5-0.8v2.3c-1.5,0.6-3.199,0.9-5.399,0.9c-3.101,0-5.5-1-7.2-3
				s-2.5-4.801-2.5-8.5c0-2.301,0.4-4.301,1.2-6c0.8-1.7,2-3.101,3.5-4c1.5-0.9,3.3-1.4,5.399-1.4c2.2,0,4.101,0.4,5.801,1.3l-1,2.2
				C226.6,107,225,106.6,223.4,106.6z M218.2,97.8h1.6c1.101,0.8,2.101,1.7,3.101,2.9c1.2-1.301,2.3-2.301,3.2-2.9h1.699v0.4
				l-0.899,1c-1.4,1.5-2.3,2.699-2.7,3.6h-2.4c-0.199-0.4-0.6-0.9-1.1-1.6c-0.5-0.601-1.3-1.601-2.6-3v-0.4H218.2z"/>
			<path fill="#FFFFFF" d="M245.7,126.8h-14.4v-2l11.101-17.9h-10.8v-2.3h13.8v2L234.3,124.5h11.4V126.8z"/>
			<path fill="#FFFFFF" d="M265.6,104.6V119c0,2.5-0.7,4.5-2.2,6c-1.4,1.399-3.4,2.2-6,2.2c-2.601,0-4.5-0.7-5.9-2.2
				c-1.399-1.5-2.1-3.5-2.1-6v-14.3h2.399v14.5c0,1.899,0.5,3.3,1.4,4.3c1,1,2.4,1.5,4.2,1.5s3.1-0.5,4.1-1.5s1.4-2.4,1.4-4.3v-14.5
				h2.7V104.6z"/>
			<path fill="#FFFFFF" d="M290.8,104.6h2.601l-7.601,22.2H283.4l-7.5-22.2h2.6l4.8,14.4c0.601,1.7,1,3.3,1.301,4.8
				c0.3-1.6,0.8-3.3,1.3-4.9L290.8,104.6z"/>
			<path fill="#FFFFFF" d="M317.2,111.1c0,2.3-0.699,4-2.199,5.2c-1.4,1.2-3.5,1.8-6.2,1.8h-2.5v8.7h-2.4v-22.2h5.4
				C314.6,104.6,317.2,106.8,317.2,111.1z M306.301,115.9h2.2c2.199,0,3.699-0.399,4.699-1.1s1.4-1.9,1.4-3.6
				c0-1.5-0.5-2.601-1.4-3.301c-0.899-0.699-2.3-1.1-4.199-1.1h-2.7V115.9z"/>
			<path fill="#FFFFFF" d="M324.001,117.6v9.2h-2.4v-22.2h5.8c2.601,0,4.5,0.5,5.7,1.601c1.2,1,1.8,2.6,1.8,4.699
				c0,2.9-1.399,4.9-4.2,6l5.7,10h-2.899L328.4,117.7h-4.399V117.6z M324.001,115.4h3.3c1.7,0,3-0.399,3.8-1.1s1.2-1.8,1.2-3.3
				s-0.4-2.5-1.2-3.2c-0.8-0.6-2.101-1-3.9-1h-3.199V115.4z"/>
			<path fill="#FFFFFF" d="M352.9,126.8l-2.6-7.1h-8.4l-2.6,7.1h-2.5l8.3-22.3h2.1l8.2,22.3H352.9z M349.6,117.4l-2.4-6.899
				c-0.3-0.9-0.6-1.9-1-3.2c-0.199,1-0.5,2-0.899,3.2l-2.5,6.899H349.6z"/>
			<path fill="#FFFFFF" d="M371.001,126.8h-14.4v-2l11.1-17.9h-10.699v-2.3h13.8v2L359.7,124.5h11.301V126.8z"/>
			<path fill="#FFFFFF" d="M386.801,126.8h-11.7v-22.2h11.7v2.3h-9.3v7.2h8.699v2.3h-8.699v8.2h9.3V126.8z"/>
		</g>
	</g>
	<g display="none">
	</g>
	<rect x="105.75" y="7.6" fill="none" width="287.3" height="167"/>
	<text transform="matrix(0.97 0 0 1 168.7112 27.5915)"><tspan x="0" y="0" fill="#FFFFFF" font-family="'HelveticaNeue'" font-size="28">DEPARTMENT OF </tspan><tspan x="39.928" y="32.6" fill="#FFFFFF" font-family="'HelveticaNeue'" font-size="28">INFORMATION </tspan><tspan x="15.569" y="65.201" fill="#FFFFFF" font-family="'HelveticaNeue'" font-size="28">TECHNOLOGIES</tspan><tspan x="-30.043" y="97.8" fill="#FFFFFF" font-family="'HelveticaNeue'" font-size="28">FEM CULS PRAGUE</tspan></text>
</g>
<g id="bila" xmlns:inkscape="http://www.inkscape.org/namespaces/inkscape" xmlns:dc="http://purl.org/dc/elements/1.1/" xmlns:rdf="http://www.w3.org/1999/02/22-rdf-syntax-ns#" xmlns:sodipodi="http://sodipodi.sourceforge.net/DTD/sodipodi-0.dtd" xmlns:svg="http://www.w3.org/2000/svg" xmlns:cc="http://creativecommons.org/ns#" inkscape:version="0.48.5 r10040" sodipodi:docname="logo_black.svg" display="none">
	<path display="inline" fill="#FFFFFF" d="M414.4,153.387c0,6.186-5.093,11.2-11.373,11.2H-27.227
		c-6.281,0-11.373-5.015-11.373-11.2v-173.6c0-6.186,5.092-11.2,11.373-11.2h430.254c6.28,0,11.373,5.014,11.373,11.2V153.387z"/>
	
		<sodipodi:namedview  id="base" inkscape:cx="226.26545" borderopacity="1.0" pagecolor="#ffffff" bordercolor="#666666" inkscape:zoom="1.979899" showgrid="false" inkscape:cy="51.538195" inkscape:pageshadow="2" inkscape:snap-global="true" inkscape:current-layer="layer1" inkscape:window-x="-8" inkscape:window-width="1920" inkscape:window-height="1027" inkscape:window-y="-8" inkscape:pageopacity="0" inkscape:window-maximized="1" inkscape:document-units="px">
		</sodipodi:namedview>
	<g id="layer1_2_" transform="translate(0,-906.11214)" inkscape:label="Layer 1" inkscape:groupmode="layer" display="inline">
		<g>
			<g id="path3044_2_" inkscape:connector-curvature="0">
				<path d="M57.9,897.6C16.5,897.6-17.2,931.3-17.2,972.7c0,41.399,33.7,75.1,75.101,75.1c11.3,0,21.899-2.6,31.5-7v-17
					c-9.2,5.601-19.9,8.9-31.5,8.9c-26.101,0-48.2-16.5-56.5-39.7H7.8h8.4v-13.9L27,993.2L27.1,993.1v0.101H43.5V981.6H32.7
					l-7.1-9.3L42.4,950H27.8l-11.6,15.4V950H7.6H2.4c9-21.8,30.399-37.1,55.5-37.1c33.2,0,60,26.699,60,60
					c0,10.6-2.8,20.6-7.601,29.199H88.2v-40.3h12.1V950h-36v11.6H76.6v40.301l0,0v11.6h25.3h10.7H121c7.7-11.8,12.2-25.8,12.2-40.9
					C133,931.3,99.3,897.6,57.9,897.6z M48.2,950v43.1h11.6V950H48.2z M-1,961.5H4.6v19.9H-1.5c-0.399-2.801-0.6-5.7-0.6-8.601
					C-2.1,968.9-1.7,965.1-1,961.5z"/>
			</g>
		</g>
	</g>
	<g>
		<g display="inline">
			<path fill="#FFFFFF" d="M271.4,30.2H268.3L260.1,19.3l-2.4,2.1V30.2h-2.6V7.7h2.6v11.1L268,7.7h3.101l-9,9.8L271.4,30.2z"/>
			<path fill="#FFFFFF" d="M288.6,30.2L285.8,23.1h-9L274,30.2h-2.6L280.3,7.6h2.2l8.8,22.601H288.6z M285,20.7l-2.6-7
				c-0.3-0.9-0.7-2-1-3.2c-0.2,1-0.5,2.1-1,3.2l-2.601,7H285z"/>
			<path fill="#FFFFFF" d="M301.301,30.2H298.7V10.1h-7.1V7.7h16.8V10h-7.1V30.2L301.301,30.2z"/>
			<path fill="#FFFFFF" d="M324.301,30.2h-12.5V7.7h12.5V10h-9.9v7.2h9.3v2.3h-9.3v8.3h9.9V30.2z"/>
			<path fill="#FFFFFF" d="M347.301,18.8c0,3.7-1,6.5-3,8.5s-4.9,2.9-8.7,2.9h-6.2V7.7h6.9c3.5,0,6.199,1,8.1,2.899
				C346.301,12.5,347.301,15.3,347.301,18.8z M344.501,18.9c0-2.899-0.7-5.1-2.2-6.6s-3.7-2.2-6.601-2.2h-3.8V28h3.2
				c3.1,0,5.5-0.8,7-2.3S344.501,21.9,344.501,18.9z"/>
			<path fill="#FFFFFF" d="M354.9,20.9V30.2h-2.6V7.7h6.2c2.8,0,4.8,0.5,6.1,1.6s2,2.6,2,4.8c0,3-1.5,5-4.5,6l6.1,10.101h-3.199
				l-5.4-9.301H354.9z M354.9,18.6h3.601c1.8,0,3.199-0.399,4.1-1.1s1.3-1.8,1.3-3.3s-0.399-2.601-1.3-3.2c-0.9-0.7-2.3-1-4.2-1
				h-3.399v8.6H354.9z"/>
			<path fill="#FFFFFF" d="M385.801,30.2l-2.8-7.101h-9L371.2,30.2h-2.6l8.9-22.601h2.199l8.801,22.601H385.801z M382.2,20.7l-2.6-7
				c-0.3-0.9-0.7-2-1-3.2c-0.2,1-0.5,2.1-1,3.2l-2.6,7H382.2z"/>
			<path fill="#FFFFFF" d="M155.2,61.7V39.2h2.6v22.5H155.2z"/>
			<path fill="#FFFFFF" d="M181.5,61.7h-3l-12.3-18.9h-0.1C166.3,45,166.3,47,166.3,48.9V61.7H163.9V39.2h3L179.1,58h0.1
				c0-0.3-0.1-1.2-0.1-2.7S179,52.7,179,52.1V39.2h2.4v22.5H181.5z"/>
			<path fill="#FFFFFF" d="M190.3,61.7h-2.6V39.2h12.5v2.3h-9.9v8.2h9.301V52H190.3V61.7z"/>
			<path fill="#FFFFFF" d="M223.4,50.4c0,3.601-0.9,6.4-2.7,8.5C218.9,61,216.4,62,213.1,62c-3.301,0-5.9-1-7.7-3
				s-2.7-4.9-2.7-8.601c0-3.699,0.9-6.5,2.7-8.5s4.399-3,7.7-3c3.199,0,5.699,1,7.6,3.101C222.5,44,223.4,46.8,223.4,50.4z
				 M205.5,50.4c0,3,0.601,5.4,1.9,6.9c1.3,1.6,3.2,2.4,5.6,2.4c2.5,0,4.4-0.801,5.601-2.4c1.3-1.6,1.899-3.9,1.899-6.9
				s-0.6-5.3-1.899-6.899C217.3,41.9,215.5,41.2,213,41.2S208.6,42,207.3,43.6C206.2,45.1,205.5,47.4,205.5,50.4z"/>
			<path fill="#FFFFFF" d="M231,52.3v9.3h-2.6V39.2h6.2c2.8,0,4.8,0.5,6.1,1.6s2,2.6,2,4.8c0,3-1.5,5-4.5,6l6.1,10.101h-3.1
				l-5.4-9.301H231V52.3z M231,50.1h3.601c1.8,0,3.199-0.399,4.1-1.1s1.3-1.8,1.3-3.3s-0.399-2.601-1.3-3.2c-0.9-0.7-2.3-1-4.2-1
				H231V50.1z"/>
			<path fill="#FFFFFF" d="M257.8,61.7l-7.6-19.9h-0.1c0.1,1.6,0.199,3.5,0.199,5.6V61.7H247.9V39.2h3.899l7.101,18.5h0.1l7.2-18.5
				h3.9v22.5H267.5V47.2c0-1.7,0.101-3.5,0.2-5.4h-0.1l-7.7,19.9H257.8z"/>
			<path fill="#FFFFFF" d="M290.4,61.7l-2.8-7.101h-9L275.8,61.7h-2.6l8.9-22.601h2.199L293.1,61.7H290.4z M286.8,52.2l-2.6-7
				c-0.3-0.9-0.7-2-1-3.2c-0.2,1-0.5,2.1-1,3.2l-2.6,7H286.8z"/>
			<path fill="#FFFFFF" d="M305.801,41.2c-2.5,0-4.4,0.8-5.8,2.5c-1.4,1.6-2.101,3.899-2.101,6.8c0,2.899,0.7,5.2,2.101,6.8
				c1.399,1.6,3.3,2.4,5.899,2.4c1.601,0,3.4-0.301,5.4-0.801V61.2c-1.601,0.6-3.5,0.899-5.8,0.899c-3.301,0-5.9-1-7.701-3
				c-1.8-2-2.699-4.899-2.699-8.6c0-2.3,0.399-4.3,1.3-6.101c0.899-1.699,2.1-3.1,3.8-4C301.801,39.5,303.801,39,306,39
				c2.4,0,4.4,0.399,6.2,1.3l-1.1,2.2C309.2,41.6,307.501,41.2,305.801,41.2z M300.2,32.4h1.801c1.199,0.801,2.3,1.7,3.399,2.9
				c1.3-1.3,2.5-2.3,3.4-2.9h1.8v0.4l-1,1c-1.5,1.5-2.4,2.7-2.9,3.6h-2.6c-0.2-0.399-0.601-1-1.101-1.6s-1.399-1.7-2.699-3.1V32.4
				H300.2z"/>
			<path fill="#FFFFFF" d="M333.6,61.7h-3l-12.3-18.9H318.2c0.2,2.2,0.2,4.2,0.2,6.1V61.7h-2.399V39.2h3l12.3,18.8h0.1
				c0-0.3-0.1-1.2-0.1-2.7s-0.101-2.6-0.101-3.2V39.2h2.4V61.7L333.6,61.7z"/>
			<path fill="#FFFFFF" d="M339.501,37c0.5-0.601,1-1.4,1.6-2.3c0.6-0.9,1-1.7,1.3-2.4h3.101v0.3c-0.5,0.7-1.101,1.5-2,2.5
				c-0.9,1-1.7,1.7-2.301,2.3h-1.699V37z M339.801,61.7V39.2h2.6v22.5H339.801z"/>
			<path fill="#FFFFFF" d="M358.2,41.2c-2.5,0-4.399,0.8-5.8,2.5c-1.399,1.6-2.1,3.899-2.1,6.8c0,2.899,0.7,5.2,2.1,6.8
				c1.4,1.6,3.3,2.4,5.9,2.4c1.6,0,3.399-0.301,5.399-0.801V61.2c-1.6,0.6-3.5,0.899-5.8,0.899c-3.3,0-5.899-1-7.7-3
				c-1.8-2-2.699-4.899-2.699-8.6c0-2.3,0.399-4.3,1.3-6.101c0.899-1.699,2.1-3.1,3.8-4C354.2,39.5,356.2,39,358.4,39
				c2.4,0,4.4,0.399,6.2,1.3l-1.101,2.2C361.6,41.6,359.9,41.2,358.2,41.2z"/>
			<path fill="#FFFFFF" d="M385.501,61.7H382.9V51.1h-11.899V61.7H368.4V39.2h2.601v9.6h11.8v-9.6h2.6v22.5H385.501z"/>
			<path fill="#FFFFFF" d="M191,93.2h-2.6V73H181.3v-2.3H198.1V73H191V93.2z"/>
			<path fill="#FFFFFF" d="M214,93.2h-12.5V70.7H214V73H204.1v7.2h9.3v2.3h-9.3v8.3H214V93.2z"/>
			<path fill="#FFFFFF" d="M228.6,72.7c-2.5,0-4.4,0.8-5.801,2.5c-1.399,1.6-2.1,3.899-2.1,6.8c0,2.899,0.7,5.2,2.1,6.8
				c1.4,1.6,3.301,2.4,5.9,2.4c1.6,0,3.4-0.301,5.4-0.801V92.7c-1.601,0.6-3.5,0.899-5.801,0.899c-3.3,0-5.899-1-7.699-3
				c-1.801-2-2.7-4.899-2.7-8.6c0-2.3,0.399-4.3,1.3-6.101c0.9-1.699,2.1-3.1,3.8-4C224.6,71,226.6,70.5,228.8,70.5
				c2.4,0,4.4,0.399,6.2,1.3l-1.1,2.2C232,73.1,230.3,72.7,228.6,72.7z"/>
			<path fill="#FFFFFF" d="M255.9,93.2H253.3V82.6h-11.8V93.2h-2.6V70.7h2.6v9.6h11.8v-9.6h2.601V93.2z"/>
			<path fill="#FFFFFF" d="M279.6,93.2h-3L264.3,74.3h-0.1c0.2,2.2,0.2,4.2,0.2,6.1V93.2H262V70.7h3l12.2,18.8h0.101
				c0-0.3-0.101-1.2-0.101-2.7s-0.1-2.6-0.1-3.2V70.7h2.399v22.5H279.6z"/>
			<path fill="#FFFFFF" d="M305.301,81.9c0,3.601-0.9,6.4-2.7,8.5c-1.8,2.101-4.3,3.101-7.601,3.101c-3.3,0-5.899-1-7.7-3
				c-1.8-2-2.699-4.9-2.699-8.601c0-3.699,0.899-6.5,2.699-8.5c1.801-2,4.4-3,7.7-3c3.2,0,5.7,1,7.601,3.101
				C304.4,75.5,305.301,78.3,305.301,81.9z M287.4,81.9c0,3,0.6,5.4,1.899,6.9c1.301,1.6,3.2,2.4,5.601,2.4
				c2.5,0,4.4-0.801,5.601-2.4c1.199-1.6,1.899-3.9,1.899-6.9s-0.6-5.3-1.899-6.899c-1.301-1.601-3.101-2.3-5.601-2.3
				s-4.4,0.8-5.7,2.399C288.1,76.6,287.4,78.9,287.4,81.9z"/>
			<path fill="#FFFFFF" d="M310.301,93.2V70.7h2.6v20.1h9.9v2.4H310.301z"/>
			<path fill="#FFFFFF" d="M346.2,81.9c0,3.601-0.899,6.4-2.699,8.5C341.7,92.5,339.2,93.5,335.9,93.5s-5.899-1-7.7-3
				c-1.8-2-2.7-4.9-2.7-8.601c0-3.699,0.9-6.5,2.7-8.5s4.4-3,7.7-3c3.2,0,5.7,1,7.601,3.101C345.301,75.5,346.2,78.3,346.2,81.9z
				 M328.301,81.9c0,3,0.6,5.4,1.899,6.9c1.3,1.6,3.2,2.4,5.601,2.4c2.5,0,4.399-0.801,5.6-2.4s1.9-3.9,1.9-6.9S342.7,76.6,341.4,75
				c-1.3-1.601-3.1-2.3-5.6-2.3s-4.4,0.8-5.7,2.399C328.9,76.6,328.301,78.9,328.301,81.9z"/>
			<path fill="#FFFFFF" d="M361.1,81.4h7.6v10.9c-1.199,0.4-2.399,0.7-3.6,0.9c-1.2,0.199-2.7,0.3-4.3,0.3c-3.4,0-6-1-7.9-3
				c-1.899-2-2.8-4.9-2.8-8.5c0-2.3,0.5-4.4,1.4-6.101c0.899-1.8,2.3-3.1,4-4c1.8-0.899,3.8-1.399,6.199-1.399
				c2.4,0,4.601,0.399,6.7,1.3l-1,2.3c-2-0.899-4-1.3-5.899-1.3c-2.7,0-4.9,0.8-6.4,2.4c-1.5,1.6-2.3,3.899-2.3,6.8
				c0,3,0.7,5.3,2.2,6.899c1.5,1.601,3.699,2.4,6.5,2.4c1.6,0,3.1-0.2,4.6-0.5v-6.9h-5V81.4L361.1,81.4z"/>
			<path fill="#FFFFFF" d="M374.1,93.2V70.7h2.6v22.5H374.1z"/>
			<path fill="#FFFFFF" d="M382.501,68.5c0.5-0.601,1-1.4,1.6-2.3c0.6-0.9,1-1.7,1.3-2.4h3.101v0.3c-0.5,0.7-1.101,1.5-2,2.5
				c-0.9,1-1.7,1.7-2.301,2.3h-1.699V68.5z M382.9,93.2V70.7h2.601v22.5H382.9z"/>
		</g>
	</g>
	<g>
		<g display="inline">
			<path fill="#FFFFFF" d="M170.9,111.1c0,2.3-0.7,4-2.2,5.2c-1.4,1.2-3.5,1.8-6.2,1.8H160v8.7H157.6v-22.2H163
				C168.3,104.6,170.9,106.8,170.9,111.1z M160.1,115.9h2.199c2.2,0,3.7-0.399,4.7-1.1s1.4-1.9,1.4-3.6c0-1.5-0.5-2.601-1.4-3.301
				c-0.899-0.699-2.3-1.1-4.2-1.1H160.1V115.9z"/>
			<path fill="#FFFFFF" d="M187,126.8h-11.7v-22.2H187v2.3h-9.3v7.2h8.7v2.3h-8.7v8.2h9.3V126.8z"/>
			<path fill="#FFFFFF" d="M194.1,126.8h-2.4v-22.2h11.7v2.3h-9.3V115h8.699v2.3H194.1V126.8z"/>
			<path fill="#FFFFFF" d="M223.4,106.6c-2.3,0-4.101,0.8-5.5,2.4c-1.3,1.6-2,3.899-2,6.7c0,2.899,0.6,5.199,1.899,6.699
				c1.301,1.601,3.101,2.4,5.5,2.4c1.5,0,3.101-0.3,5-0.8v2.3c-1.5,0.6-3.199,0.9-5.399,0.9c-3.101,0-5.5-1-7.2-3
				s-2.5-4.801-2.5-8.5c0-2.301,0.4-4.301,1.2-6c0.8-1.7,2-3.101,3.5-4c1.5-0.9,3.3-1.4,5.399-1.4c2.2,0,4.101,0.4,5.801,1.3l-1,2.2
				C226.6,107,225,106.6,223.4,106.6z M218.2,97.8h1.6c1.101,0.8,2.101,1.7,3.101,2.9c1.2-1.301,2.3-2.301,3.2-2.9h1.699v0.4
				l-0.899,1c-1.4,1.5-2.3,2.699-2.7,3.6h-2.4c-0.199-0.4-0.6-0.9-1.1-1.6c-0.5-0.601-1.3-1.601-2.6-3v-0.4H218.2z"/>
			<path fill="#FFFFFF" d="M245.7,126.8h-14.4v-2l11.101-17.9h-10.8v-2.3h13.8v2L234.3,124.5h11.4V126.8z"/>
			<path fill="#FFFFFF" d="M265.6,104.6V119c0,2.5-0.7,4.5-2.2,6c-1.4,1.399-3.4,2.2-6,2.2c-2.601,0-4.5-0.7-5.9-2.2
				c-1.399-1.5-2.1-3.5-2.1-6v-14.3h2.399v14.5c0,1.899,0.5,3.3,1.4,4.3c1,1,2.4,1.5,4.2,1.5s3.1-0.5,4.1-1.5s1.4-2.4,1.4-4.3v-14.5
				h2.7V104.6z"/>
			<path fill="#FFFFFF" d="M290.8,104.6h2.601l-7.601,22.2H283.4l-7.5-22.2h2.6l4.8,14.4c0.601,1.7,1,3.3,1.301,4.8
				c0.3-1.6,0.8-3.3,1.3-4.9L290.8,104.6z"/>
			<path fill="#FFFFFF" d="M317.2,111.1c0,2.3-0.699,4-2.199,5.2c-1.4,1.2-3.5,1.8-6.2,1.8h-2.5v8.7h-2.4v-22.2h5.4
				C314.6,104.6,317.2,106.8,317.2,111.1z M306.301,115.9h2.2c2.199,0,3.699-0.399,4.699-1.1s1.4-1.9,1.4-3.6
				c0-1.5-0.5-2.601-1.4-3.301c-0.899-0.699-2.3-1.1-4.199-1.1h-2.7V115.9z"/>
			<path fill="#FFFFFF" d="M324.001,117.6v9.2h-2.4v-22.2h5.8c2.601,0,4.5,0.5,5.7,1.601c1.2,1,1.8,2.6,1.8,4.699
				c0,2.9-1.399,4.9-4.2,6l5.7,10h-2.899L328.4,117.7h-4.399V117.6z M324.001,115.4h3.3c1.7,0,3-0.399,3.8-1.1s1.2-1.8,1.2-3.3
				s-0.4-2.5-1.2-3.2c-0.8-0.6-2.101-1-3.9-1h-3.199V115.4z"/>
			<path fill="#FFFFFF" d="M352.9,126.8l-2.6-7.1h-8.4l-2.6,7.1h-2.5l8.3-22.3h2.1l8.2,22.3H352.9z M349.6,117.4l-2.4-6.899
				c-0.3-0.9-0.6-1.9-1-3.2c-0.199,1-0.5,2-0.899,3.2l-2.5,6.899H349.6z"/>
			<path fill="#FFFFFF" d="M371.001,126.8h-14.4v-2l11.1-17.9h-10.699v-2.3h13.8v2L359.7,124.5h11.301V126.8z"/>
			<path fill="#FFFFFF" d="M386.801,126.8h-11.7v-22.2h11.7v2.3h-9.3v7.2h8.699v2.3h-8.699v8.2h9.3V126.8z"/>
		</g>
	</g>
	<g>
	</g>
	<rect x="105.75" y="7.6" display="inline" fill="none" width="287.3" height="167"/>
	<text transform="matrix(0.97 0 0 1 168.7112 27.5915)" display="inline"><tspan x="0" y="0" font-family="'HelveticaNeue'" font-size="28">DEPARTMENT OF </tspan><tspan x="39.928" y="32.6" font-family="'HelveticaNeue'" font-size="28">INFORMATION </tspan><tspan x="15.569" y="65.201" font-family="'HelveticaNeue'" font-size="28">TECHNOLOGIES</tspan><tspan x="-30.043" y="97.8" font-family="'HelveticaNeue'" font-size="28">FEM CULS PRAGUE</tspan></text>
</g>
<g id="cerna" xmlns:inkscape="http://www.inkscape.org/namespaces/inkscape" xmlns:dc="http://purl.org/dc/elements/1.1/" xmlns:rdf="http://www.w3.org/1999/02/22-rdf-syntax-ns#" xmlns:sodipodi="http://sodipodi.sourceforge.net/DTD/sodipodi-0.dtd" xmlns:svg="http://www.w3.org/2000/svg" xmlns:cc="http://creativecommons.org/ns#" inkscape:version="0.48.5 r10040" sodipodi:docname="logo_black.svg" display="none">
	<path display="inline" d="M414.4,153.387c0,6.186-5.093,11.2-11.373,11.2H-27.227c-6.281,0-11.373-5.015-11.373-11.2v-173.6
		c0-6.186,5.092-11.2,11.373-11.2h430.254c6.28,0,11.373,5.014,11.373,11.2V153.387z"/>
	
		<sodipodi:namedview  id="base" inkscape:cx="226.26545" borderopacity="1.0" pagecolor="#ffffff" bordercolor="#666666" inkscape:zoom="1.979899" showgrid="false" inkscape:cy="51.538195" inkscape:pageshadow="2" inkscape:snap-global="true" inkscape:current-layer="layer1" inkscape:window-x="-8" inkscape:window-width="1920" inkscape:window-height="1027" inkscape:window-y="-8" inkscape:pageopacity="0" inkscape:window-maximized="1" inkscape:document-units="px">
		</sodipodi:namedview>
	<g id="layer1_1_" transform="translate(0,-906.11214)" inkscape:label="Layer 1" inkscape:groupmode="layer" display="inline">
		<g>
			<g id="path3044_1_" inkscape:connector-curvature="0">
				<path fill="#FFFFFF" d="M57.9,897.6C16.5,897.6-17.2,931.3-17.2,972.7c0,41.399,33.7,75.1,75.101,75.1c11.3,0,21.899-2.6,31.5-7
					v-17c-9.2,5.601-19.9,8.9-31.5,8.9c-26.101,0-48.2-16.5-56.5-39.7H7.8h8.4v-13.9L27,993.2L27.1,993.1v0.101H43.5V981.6H32.7
					l-7.1-9.3L42.4,950H27.8l-11.6,15.4V950H7.6H2.4c9-21.8,30.399-37.1,55.5-37.1c33.2,0,60,26.699,60,60
					c0,10.6-2.8,20.6-7.601,29.199H88.2v-40.3h12.1V950h-36v11.6H76.6v40.301l0,0v11.6h25.3h10.7H121c7.7-11.8,12.2-25.8,12.2-40.9
					C133,931.3,99.3,897.6,57.9,897.6z M48.2,950v43.1h11.6V950H48.2z M-1,961.5H4.6v19.9H-1.5c-0.399-2.801-0.6-5.7-0.6-8.601
					C-2.1,968.9-1.7,965.1-1,961.5z"/>
			</g>
		</g>
	</g>
	<g>
		<g display="inline">
			<path fill="#FFFFFF" d="M271.4,30.2H268.3L260.1,19.3l-2.4,2.1V30.2h-2.6V7.7h2.6v11.1L268,7.7h3.101l-9,9.8L271.4,30.2z"/>
			<path fill="#FFFFFF" d="M288.6,30.2L285.8,23.1h-9L274,30.2h-2.6L280.3,7.6h2.2l8.8,22.601H288.6z M285,20.7l-2.6-7
				c-0.3-0.9-0.7-2-1-3.2c-0.2,1-0.5,2.1-1,3.2l-2.601,7H285z"/>
			<path fill="#FFFFFF" d="M301.301,30.2H298.7V10.1h-7.1V7.7h16.8V10h-7.1V30.2L301.301,30.2z"/>
			<path fill="#FFFFFF" d="M324.301,30.2h-12.5V7.7h12.5V10h-9.9v7.2h9.3v2.3h-9.3v8.3h9.9V30.2z"/>
			<path fill="#FFFFFF" d="M347.301,18.8c0,3.7-1,6.5-3,8.5s-4.9,2.9-8.7,2.9h-6.2V7.7h6.9c3.5,0,6.199,1,8.1,2.899
				C346.301,12.5,347.301,15.3,347.301,18.8z M344.501,18.9c0-2.899-0.7-5.1-2.2-6.6s-3.7-2.2-6.601-2.2h-3.8V28h3.2
				c3.1,0,5.5-0.8,7-2.3S344.501,21.9,344.501,18.9z"/>
			<path fill="#FFFFFF" d="M354.9,20.9V30.2h-2.6V7.7h6.2c2.8,0,4.8,0.5,6.1,1.6s2,2.6,2,4.8c0,3-1.5,5-4.5,6l6.1,10.101h-3.199
				l-5.4-9.301H354.9z M354.9,18.6h3.601c1.8,0,3.199-0.399,4.1-1.1s1.3-1.8,1.3-3.3s-0.399-2.601-1.3-3.2c-0.9-0.7-2.3-1-4.2-1
				h-3.399v8.6H354.9z"/>
			<path fill="#FFFFFF" d="M385.801,30.2l-2.8-7.101h-9L371.2,30.2h-2.6l8.9-22.601h2.199l8.801,22.601H385.801z M382.2,20.7l-2.6-7
				c-0.3-0.9-0.7-2-1-3.2c-0.2,1-0.5,2.1-1,3.2l-2.6,7H382.2z"/>
			<path fill="#FFFFFF" d="M155.2,61.7V39.2h2.6v22.5H155.2z"/>
			<path fill="#FFFFFF" d="M181.5,61.7h-3l-12.3-18.9h-0.1C166.3,45,166.3,47,166.3,48.9V61.7H163.9V39.2h3L179.1,58h0.1
				c0-0.3-0.1-1.2-0.1-2.7S179,52.7,179,52.1V39.2h2.4v22.5H181.5z"/>
			<path fill="#FFFFFF" d="M190.3,61.7h-2.6V39.2h12.5v2.3h-9.9v8.2h9.301V52H190.3V61.7z"/>
			<path fill="#FFFFFF" d="M223.4,50.4c0,3.601-0.9,6.4-2.7,8.5C218.9,61,216.4,62,213.1,62c-3.301,0-5.9-1-7.7-3
				s-2.7-4.9-2.7-8.601c0-3.699,0.9-6.5,2.7-8.5s4.399-3,7.7-3c3.199,0,5.699,1,7.6,3.101C222.5,44,223.4,46.8,223.4,50.4z
				 M205.5,50.4c0,3,0.601,5.4,1.9,6.9c1.3,1.6,3.2,2.4,5.6,2.4c2.5,0,4.4-0.801,5.601-2.4c1.3-1.6,1.899-3.9,1.899-6.9
				s-0.6-5.3-1.899-6.899C217.3,41.9,215.5,41.2,213,41.2S208.6,42,207.3,43.6C206.2,45.1,205.5,47.4,205.5,50.4z"/>
			<path fill="#FFFFFF" d="M231,52.3v9.3h-2.6V39.2h6.2c2.8,0,4.8,0.5,6.1,1.6s2,2.6,2,4.8c0,3-1.5,5-4.5,6l6.1,10.101h-3.1
				l-5.4-9.301H231V52.3z M231,50.1h3.601c1.8,0,3.199-0.399,4.1-1.1s1.3-1.8,1.3-3.3s-0.399-2.601-1.3-3.2c-0.9-0.7-2.3-1-4.2-1
				H231V50.1z"/>
			<path fill="#FFFFFF" d="M257.8,61.7l-7.6-19.9h-0.1c0.1,1.6,0.199,3.5,0.199,5.6V61.7H247.9V39.2h3.899l7.101,18.5h0.1l7.2-18.5
				h3.9v22.5H267.5V47.2c0-1.7,0.101-3.5,0.2-5.4h-0.1l-7.7,19.9H257.8z"/>
			<path fill="#FFFFFF" d="M290.4,61.7l-2.8-7.101h-9L275.8,61.7h-2.6l8.9-22.601h2.199L293.1,61.7H290.4z M286.8,52.2l-2.6-7
				c-0.3-0.9-0.7-2-1-3.2c-0.2,1-0.5,2.1-1,3.2l-2.6,7H286.8z"/>
			<path fill="#FFFFFF" d="M305.801,41.2c-2.5,0-4.4,0.8-5.8,2.5c-1.4,1.6-2.101,3.899-2.101,6.8c0,2.899,0.7,5.2,2.101,6.8
				c1.399,1.6,3.3,2.4,5.899,2.4c1.601,0,3.4-0.301,5.4-0.801V61.2c-1.601,0.6-3.5,0.899-5.8,0.899c-3.301,0-5.9-1-7.701-3
				c-1.8-2-2.699-4.899-2.699-8.6c0-2.3,0.399-4.3,1.3-6.101c0.899-1.699,2.1-3.1,3.8-4C301.801,39.5,303.801,39,306,39
				c2.4,0,4.4,0.399,6.2,1.3l-1.1,2.2C309.2,41.6,307.501,41.2,305.801,41.2z M300.2,32.4h1.801c1.199,0.801,2.3,1.7,3.399,2.9
				c1.3-1.3,2.5-2.3,3.4-2.9h1.8v0.4l-1,1c-1.5,1.5-2.4,2.7-2.9,3.6h-2.6c-0.2-0.399-0.601-1-1.101-1.6s-1.399-1.7-2.699-3.1V32.4
				H300.2z"/>
			<path fill="#FFFFFF" d="M333.6,61.7h-3l-12.3-18.9H318.2c0.2,2.2,0.2,4.2,0.2,6.1V61.7h-2.399V39.2h3l12.3,18.8h0.1
				c0-0.3-0.1-1.2-0.1-2.7s-0.101-2.6-0.101-3.2V39.2h2.4V61.7L333.6,61.7z"/>
			<path fill="#FFFFFF" d="M339.501,37c0.5-0.601,1-1.4,1.6-2.3c0.6-0.9,1-1.7,1.3-2.4h3.101v0.3c-0.5,0.7-1.101,1.5-2,2.5
				c-0.9,1-1.7,1.7-2.301,2.3h-1.699V37z M339.801,61.7V39.2h2.6v22.5H339.801z"/>
			<path fill="#FFFFFF" d="M358.2,41.2c-2.5,0-4.399,0.8-5.8,2.5c-1.399,1.6-2.1,3.899-2.1,6.8c0,2.899,0.7,5.2,2.1,6.8
				c1.4,1.6,3.3,2.4,5.9,2.4c1.6,0,3.399-0.301,5.399-0.801V61.2c-1.6,0.6-3.5,0.899-5.8,0.899c-3.3,0-5.899-1-7.7-3
				c-1.8-2-2.699-4.899-2.699-8.6c0-2.3,0.399-4.3,1.3-6.101c0.899-1.699,2.1-3.1,3.8-4C354.2,39.5,356.2,39,358.4,39
				c2.4,0,4.4,0.399,6.2,1.3l-1.101,2.2C361.6,41.6,359.9,41.2,358.2,41.2z"/>
			<path fill="#FFFFFF" d="M385.501,61.7H382.9V51.1h-11.899V61.7H368.4V39.2h2.601v9.6h11.8v-9.6h2.6v22.5H385.501z"/>
			<path fill="#FFFFFF" d="M191,93.2h-2.6V73H181.3v-2.3H198.1V73H191V93.2z"/>
			<path fill="#FFFFFF" d="M214,93.2h-12.5V70.7H214V73H204.1v7.2h9.3v2.3h-9.3v8.3H214V93.2z"/>
			<path fill="#FFFFFF" d="M228.6,72.7c-2.5,0-4.4,0.8-5.801,2.5c-1.399,1.6-2.1,3.899-2.1,6.8c0,2.899,0.7,5.2,2.1,6.8
				c1.4,1.6,3.301,2.4,5.9,2.4c1.6,0,3.4-0.301,5.4-0.801V92.7c-1.601,0.6-3.5,0.899-5.801,0.899c-3.3,0-5.899-1-7.699-3
				c-1.801-2-2.7-4.899-2.7-8.6c0-2.3,0.399-4.3,1.3-6.101c0.9-1.699,2.1-3.1,3.8-4C224.6,71,226.6,70.5,228.8,70.5
				c2.4,0,4.4,0.399,6.2,1.3l-1.1,2.2C232,73.1,230.3,72.7,228.6,72.7z"/>
			<path fill="#FFFFFF" d="M255.9,93.2H253.3V82.6h-11.8V93.2h-2.6V70.7h2.6v9.6h11.8v-9.6h2.601V93.2z"/>
			<path fill="#FFFFFF" d="M279.6,93.2h-3L264.3,74.3h-0.1c0.2,2.2,0.2,4.2,0.2,6.1V93.2H262V70.7h3l12.2,18.8h0.101
				c0-0.3-0.101-1.2-0.101-2.7s-0.1-2.6-0.1-3.2V70.7h2.399v22.5H279.6z"/>
			<path fill="#FFFFFF" d="M305.301,81.9c0,3.601-0.9,6.4-2.7,8.5c-1.8,2.101-4.3,3.101-7.601,3.101c-3.3,0-5.899-1-7.7-3
				c-1.8-2-2.699-4.9-2.699-8.601c0-3.699,0.899-6.5,2.699-8.5c1.801-2,4.4-3,7.7-3c3.2,0,5.7,1,7.601,3.101
				C304.4,75.5,305.301,78.3,305.301,81.9z M287.4,81.9c0,3,0.6,5.4,1.899,6.9c1.301,1.6,3.2,2.4,5.601,2.4
				c2.5,0,4.4-0.801,5.601-2.4c1.199-1.6,1.899-3.9,1.899-6.9s-0.6-5.3-1.899-6.899c-1.301-1.601-3.101-2.3-5.601-2.3
				s-4.4,0.8-5.7,2.399C288.1,76.6,287.4,78.9,287.4,81.9z"/>
			<path fill="#FFFFFF" d="M310.301,93.2V70.7h2.6v20.1h9.9v2.4H310.301z"/>
			<path fill="#FFFFFF" d="M346.2,81.9c0,3.601-0.899,6.4-2.699,8.5C341.7,92.5,339.2,93.5,335.9,93.5s-5.899-1-7.7-3
				c-1.8-2-2.7-4.9-2.7-8.601c0-3.699,0.9-6.5,2.7-8.5s4.4-3,7.7-3c3.2,0,5.7,1,7.601,3.101C345.301,75.5,346.2,78.3,346.2,81.9z
				 M328.301,81.9c0,3,0.6,5.4,1.899,6.9c1.3,1.6,3.2,2.4,5.601,2.4c2.5,0,4.399-0.801,5.6-2.4s1.9-3.9,1.9-6.9S342.7,76.6,341.4,75
				c-1.3-1.601-3.1-2.3-5.6-2.3s-4.4,0.8-5.7,2.399C328.9,76.6,328.301,78.9,328.301,81.9z"/>
			<path fill="#FFFFFF" d="M361.1,81.4h7.6v10.9c-1.199,0.4-2.399,0.7-3.6,0.9c-1.2,0.199-2.7,0.3-4.3,0.3c-3.4,0-6-1-7.9-3
				c-1.899-2-2.8-4.9-2.8-8.5c0-2.3,0.5-4.4,1.4-6.101c0.899-1.8,2.3-3.1,4-4c1.8-0.899,3.8-1.399,6.199-1.399
				c2.4,0,4.601,0.399,6.7,1.3l-1,2.3c-2-0.899-4-1.3-5.899-1.3c-2.7,0-4.9,0.8-6.4,2.4c-1.5,1.6-2.3,3.899-2.3,6.8
				c0,3,0.7,5.3,2.2,6.899c1.5,1.601,3.699,2.4,6.5,2.4c1.6,0,3.1-0.2,4.6-0.5v-6.9h-5V81.4L361.1,81.4z"/>
			<path fill="#FFFFFF" d="M374.1,93.2V70.7h2.6v22.5H374.1z"/>
			<path fill="#FFFFFF" d="M382.501,68.5c0.5-0.601,1-1.4,1.6-2.3c0.6-0.9,1-1.7,1.3-2.4h3.101v0.3c-0.5,0.7-1.101,1.5-2,2.5
				c-0.9,1-1.7,1.7-2.301,2.3h-1.699V68.5z M382.9,93.2V70.7h2.601v22.5H382.9z"/>
		</g>
	</g>
	<g>
		<g display="inline">
			<path fill="#FFFFFF" d="M170.9,111.1c0,2.3-0.7,4-2.2,5.2c-1.4,1.2-3.5,1.8-6.2,1.8H160v8.7H157.6v-22.2H163
				C168.3,104.6,170.9,106.8,170.9,111.1z M160.1,115.9h2.199c2.2,0,3.7-0.399,4.7-1.1s1.4-1.9,1.4-3.6c0-1.5-0.5-2.601-1.4-3.301
				c-0.899-0.699-2.3-1.1-4.2-1.1H160.1V115.9z"/>
			<path fill="#FFFFFF" d="M187,126.8h-11.7v-22.2H187v2.3h-9.3v7.2h8.7v2.3h-8.7v8.2h9.3V126.8z"/>
			<path fill="#FFFFFF" d="M194.1,126.8h-2.4v-22.2h11.7v2.3h-9.3V115h8.699v2.3H194.1V126.8z"/>
			<path fill="#FFFFFF" d="M223.4,106.6c-2.3,0-4.101,0.8-5.5,2.4c-1.3,1.6-2,3.899-2,6.7c0,2.899,0.6,5.199,1.899,6.699
				c1.301,1.601,3.101,2.4,5.5,2.4c1.5,0,3.101-0.3,5-0.8v2.3c-1.5,0.6-3.199,0.9-5.399,0.9c-3.101,0-5.5-1-7.2-3
				s-2.5-4.801-2.5-8.5c0-2.301,0.4-4.301,1.2-6c0.8-1.7,2-3.101,3.5-4c1.5-0.9,3.3-1.4,5.399-1.4c2.2,0,4.101,0.4,5.801,1.3l-1,2.2
				C226.6,107,225,106.6,223.4,106.6z M218.2,97.8h1.6c1.101,0.8,2.101,1.7,3.101,2.9c1.2-1.301,2.3-2.301,3.2-2.9h1.699v0.4
				l-0.899,1c-1.4,1.5-2.3,2.699-2.7,3.6h-2.4c-0.199-0.4-0.6-0.9-1.1-1.6c-0.5-0.601-1.3-1.601-2.6-3v-0.4H218.2z"/>
			<path fill="#FFFFFF" d="M245.7,126.8h-14.4v-2l11.101-17.9h-10.8v-2.3h13.8v2L234.3,124.5h11.4V126.8z"/>
			<path fill="#FFFFFF" d="M265.6,104.6V119c0,2.5-0.7,4.5-2.2,6c-1.4,1.399-3.4,2.2-6,2.2c-2.601,0-4.5-0.7-5.9-2.2
				c-1.399-1.5-2.1-3.5-2.1-6v-14.3h2.399v14.5c0,1.899,0.5,3.3,1.4,4.3c1,1,2.4,1.5,4.2,1.5s3.1-0.5,4.1-1.5s1.4-2.4,1.4-4.3v-14.5
				h2.7V104.6z"/>
			<path fill="#FFFFFF" d="M290.8,104.6h2.601l-7.601,22.2H283.4l-7.5-22.2h2.6l4.8,14.4c0.601,1.7,1,3.3,1.301,4.8
				c0.3-1.6,0.8-3.3,1.3-4.9L290.8,104.6z"/>
			<path fill="#FFFFFF" d="M317.2,111.1c0,2.3-0.699,4-2.199,5.2c-1.4,1.2-3.5,1.8-6.2,1.8h-2.5v8.7h-2.4v-22.2h5.4
				C314.6,104.6,317.2,106.8,317.2,111.1z M306.301,115.9h2.2c2.199,0,3.699-0.399,4.699-1.1s1.4-1.9,1.4-3.6
				c0-1.5-0.5-2.601-1.4-3.301c-0.899-0.699-2.3-1.1-4.199-1.1h-2.7V115.9z"/>
			<path fill="#FFFFFF" d="M324.001,117.6v9.2h-2.4v-22.2h5.8c2.601,0,4.5,0.5,5.7,1.601c1.2,1,1.8,2.6,1.8,4.699
				c0,2.9-1.399,4.9-4.2,6l5.7,10h-2.899L328.4,117.7h-4.399V117.6z M324.001,115.4h3.3c1.7,0,3-0.399,3.8-1.1s1.2-1.8,1.2-3.3
				s-0.4-2.5-1.2-3.2c-0.8-0.6-2.101-1-3.9-1h-3.199V115.4z"/>
			<path fill="#FFFFFF" d="M352.9,126.8l-2.6-7.1h-8.4l-2.6,7.1h-2.5l8.3-22.3h2.1l8.2,22.3H352.9z M349.6,117.4l-2.4-6.899
				c-0.3-0.9-0.6-1.9-1-3.2c-0.199,1-0.5,2-0.899,3.2l-2.5,6.899H349.6z"/>
			<path fill="#FFFFFF" d="M371.001,126.8h-14.4v-2l11.1-17.9h-10.699v-2.3h13.8v2L359.7,124.5h11.301V126.8z"/>
			<path fill="#FFFFFF" d="M386.801,126.8h-11.7v-22.2h11.7v2.3h-9.3v7.2h8.699v2.3h-8.699v8.2h9.3V126.8z"/>
		</g>
	</g>
	<g>
	</g>
	<rect x="105.75" y="7.6" display="inline" fill="none" width="287.3" height="167"/>
	<text transform="matrix(0.97 0 0 1 168.7112 27.5915)" display="inline"><tspan x="0" y="0" fill="#FFFFFF" font-family="'HelveticaNeue'" font-size="28">DEPARTMENT OF </tspan><tspan x="39.928" y="32.6" fill="#FFFFFF" font-family="'HelveticaNeue'" font-size="28">INFORMATION </tspan><tspan x="15.569" y="65.201" fill="#FFFFFF" font-family="'HelveticaNeue'" font-size="28">TECHNOLOGIES</tspan><tspan x="-30.043" y="97.8" fill="#FFFFFF" font-family="'HelveticaNeue'" font-size="28">FEM CULS PRAGUE</tspan></text>
</g>
</svg>
